<?xml version="1.0" standalone="no"?>
<!DOCTYPE svg PUBLIC "-//W3C//DTD SVG 20010904//EN"
 "http://www.w3.org/TR/2001/REC-SVG-20010904/DTD/svg10.dtd">
<svg version="1.0" xmlns="http://www.w3.org/2000/svg"
 width="600.000000pt" height="600.000000pt" viewBox="0 0 600.000000 600.000000"
 preserveAspectRatio="xMidYMid meet">
<metadata>
Created by potrace 1.11, written by Peter Selinger 2001-2013
</metadata>
<g transform="translate(0.000000,600.000000) scale(0.100000,-0.100000)"
fill="#000000" stroke="none">
<path d="M2764 5962 c-60 -72 -129 -188 -193 -324 l-65 -136 -60 -15 c-90 -24
-305 -92 -351 -112 -22 -9 -65 -28 -95 -42 -30 -14 -91 -38 -135 -53 -370
-127 -520 -216 -645 -381 -33 -44 -60 -86 -60 -93 0 -8 -7 -19 -15 -26 -19
-15 -87 -160 -104 -220 -7 -25 -20 -61 -28 -80 -20 -44 -63 -179 -63 -195 0
-6 -18 -37 -40 -69 -74 -106 -85 -161 -106 -541 -10 -180 0 -253 45 -320 17
-25 31 -50 31 -54 0 -5 -23 -18 -51 -30 -118 -51 -346 -31 -572 52 -68 25
-142 113 -221 261 l-36 69 0 -277 c0 -244 2 -280 17 -304 36 -56 147 -199 191
-244 25 -26 44 -49 41 -51 -10 -7 -177 -56 -211 -62 l-38 -6 0 -382 0 -381 51
49 c51 49 51 49 45 20 -3 -16 -11 -57 -16 -90 -11 -60 -35 -95 -66 -95 -11 0
-14 -24 -14 -117 l1 -118 25 29 c30 34 44 27 19 -10 -12 -19 -16 -42 -14 -88
4 -74 -10 -216 -22 -216 -4 0 -8 -295 -9 -655 l0 -655 287 0 288 1 -26 22
c-15 12 -66 53 -113 91 -92 75 -116 103 -116 137 0 11 -6 35 -14 52 -18 41
-36 129 -36 173 0 79 31 90 133 49 133 -55 331 -70 447 -35 36 11 79 20 95 20
45 0 78 27 72 58 -4 18 3 36 24 62 16 20 50 72 74 115 50 87 48 116 -5 71 -26
-21 -39 -25 -65 -20 -18 3 -42 1 -55 -6 -17 -9 -39 -8 -103 6 -149 31 -250
102 -299 209 -17 39 -22 68 -22 131 0 76 3 88 46 175 57 117 133 226 190 271
52 42 131 88 151 88 8 0 25 9 39 20 24 19 101 50 125 50 6 0 33 -18 58 -40 27
-23 57 -40 71 -40 33 0 30 16 -6 29 -16 5 -30 13 -30 17 0 11 93 -7 132 -27
20 -10 42 -19 48 -19 22 0 232 -168 277 -221 85 -100 251 -354 239 -366 -3 -3
-21 11 -40 33 -41 47 -57 42 -21 -7 37 -50 81 -149 112 -247 22 -72 27 -110
29 -221 4 -144 27 -428 46 -553 l11 -78 684 0 684 0 -22 36 c-15 25 -18 38
-11 43 8 4 -5 21 -33 44 -46 39 -56 57 -31 57 15 0 99 -66 105 -82 2 -6 -2
-14 -9 -18 -16 -10 44 -50 75 -50 20 -1 20 -1 1 -15 -18 -13 0 -15 165 -14
101 0 177 3 169 6 -8 3 -27 14 -42 24 -32 23 -45 25 -28 4 11 -13 8 -15 -19
-15 -17 0 -48 7 -68 15 -43 18 -67 19 -93 3 -30 -19 -35 -3 -11 37 35 60 21
165 -23 165 -16 0 -61 48 -53 56 3 4 28 -9 54 -28 26 -19 75 -51 109 -71 34
-20 101 -73 150 -117 l89 -80 332 0 332 0 7 45 c9 65 -4 189 -28 265 -17 52
-32 75 -82 125 -34 33 -74 68 -89 78 -24 16 -27 24 -27 70 1 29 7 63 15 77 8
14 14 38 15 53 0 22 24 51 113 140 90 90 217 249 217 272 0 3 13 27 30 53 33
54 38 98 15 141 -16 32 -92 101 -111 101 -6 0 -17 7 -24 15 -7 9 -21 13 -34
10 -11 -3 -48 3 -80 15 -33 11 -67 20 -77 20 -45 0 -51 111 -11 168 12 17 52
47 90 67 37 21 92 59 123 86 31 27 62 49 69 49 14 0 5 -31 -21 -74 -10 -17
-27 -47 -38 -66 -10 -19 -31 -48 -47 -63 -15 -15 -25 -28 -23 -30 61 -35 67
-35 132 6 29 18 79 46 112 61 66 32 151 102 265 217 89 92 163 223 204 366 30
105 32 137 11 177 -14 27 -13 33 11 95 15 36 40 83 56 103 33 42 64 121 83
213 14 67 7 65 118 46 45 -8 80 -8 105 -2 20 5 64 12 97 16 64 7 119 22 200
53 l50 20 3 74 3 75 -66 6 c-81 8 -143 38 -283 138 -57 41 -116 83 -132 94
-182 129 -345 281 -362 339 -8 27 -23 45 -45 59 -38 22 -38 26 -18 93 35 112
53 222 50 293 -4 75 -32 177 -63 222 -9 15 -30 46 -46 70 -17 24 -56 95 -88
158 -64 125 -83 153 -172 254 -139 156 -259 276 -386 385 -74 64 -137 121
-139 126 -2 6 -24 32 -49 58 -44 47 -139 101 -224 128 -21 6 -41 17 -45 25
-10 16 -155 35 -266 35 -53 0 -88 5 -110 16 -17 9 -58 24 -91 33 -69 18 -60 1
-96 205 -18 100 -31 138 -45 125 -2 -3 0 -32 6 -65 12 -67 26 -152 35 -206 7
-38 7 -38 -29 -38 -42 0 -199 -36 -242 -55 -60 -27 -105 -44 -105 -39 0 17 25
46 53 61 19 9 27 18 19 21 -24 8 -89 -46 -120 -99 l-31 -53 -133 -2 c-73 0
-154 -4 -180 -9 -36 -5 -48 -4 -48 5 0 46 206 409 255 450 18 15 19 30 3 30
-7 0 -27 -17 -44 -38z m-1234 -849 c0 -5 -40 -30 -88 -56 -94 -52 -85 -31 12
27 60 36 76 42 76 29z m1522 -373 c221 -201 286 -273 358 -395 13 -22 77 -120
141 -218 150 -227 183 -308 183 -447 1 -85 -3 -104 -33 -180 -32 -78 -43 -93
-133 -182 -57 -57 -100 -109 -104 -125 -4 -16 -20 -52 -36 -81 -15 -29 -28
-59 -28 -68 0 -8 -9 -32 -20 -54 -41 -81 -13 -209 57 -262 42 -33 80 -38 67
-10 -14 29 -16 146 -4 203 6 30 11 66 10 81 0 38 18 44 32 11 17 -39 53 -94
125 -194 74 -102 113 -181 113 -229 0 -66 -61 -164 -113 -183 -7 -2 -9 -7 -6
-11 3 -3 30 -2 60 4 69 13 106 49 154 149 50 103 71 163 86 246 12 68 41 149
58 159 5 3 11 -16 14 -42 16 -127 176 -423 275 -509 l26 -22 -25 -46 c-13 -26
-36 -56 -52 -67 -46 -33 -144 -67 -180 -62 -41 6 -55 -4 -63 -45 -6 -29 -2
-37 44 -81 l51 -49 -30 -26 c-17 -14 -36 -25 -42 -25 -7 0 -30 -19 -52 -41
-60 -60 -141 -106 -270 -149 -63 -22 -125 -46 -137 -53 -13 -8 -45 -20 -73
-27 -27 -7 -56 -20 -63 -29 -11 -14 -19 -14 -80 3 -92 25 -216 55 -281 66 -29
5 -69 18 -88 30 -19 11 -47 20 -62 20 -17 0 -54 17 -87 39 -73 49 -204 177
-204 200 0 9 7 45 16 81 20 85 20 156 0 204 -22 52 -21 53 22 60 22 3 56 17
76 31 20 14 54 34 74 44 57 29 142 103 199 174 52 63 92 152 76 168 -4 4 -55
1 -113 -7 -220 -31 -257 -34 -330 -28 -138 12 -200 65 -323 280 -38 65 -47 90
-47 128 0 32 -5 48 -15 52 -8 4 -15 17 -15 30 0 25 1 25 120 40 30 3 65 6 78
6 28 0 60 38 119 140 57 100 128 178 203 223 85 52 94 48 64 -27 -39 -99 -57
-194 -58 -313 -1 -100 1 -114 24 -155 21 -38 32 -46 74 -58 42 -12 56 -12 105
2 32 9 67 16 78 16 30 0 80 -31 94 -57 14 -27 29 -30 29 -7 0 9 -16 32 -36 51
-25 23 -33 37 -27 46 25 32 48 126 58 232 15 167 19 223 17 239 -1 11 2 22 7
26 5 3 -13 31 -40 63 -66 74 -39 76 29 2 28 -30 53 -55 56 -55 16 0 1 22 -50
74 l-57 58 29 24 c33 26 28 29 -25 13 -30 -9 -44 -8 -76 5 -21 9 -35 19 -32
23 16 15 -19 33 -64 33 -26 0 -51 5 -54 11 -5 7 -15 4 -29 -9 -11 -11 -43 -27
-69 -36 -76 -25 -98 -40 -165 -107 -55 -56 -165 -208 -213 -296 -15 -28 -36
-38 -170 -82 l-26 -8 -18 111 c-20 126 -19 146 12 161 36 18 54 37 134 141 71
91 219 230 219 205 0 -5 -38 -48 -84 -95 -46 -47 -81 -86 -76 -86 16 0 178
150 268 248 99 108 124 122 270 151 29 6 67 18 84 27 22 11 45 14 74 10 32 -4
56 0 96 18 63 28 89 52 65 62 -8 3 -30 -1 -49 -9 -19 -8 -59 -18 -89 -22 -30
-4 -58 -11 -64 -15 -15 -11 -72 -28 -145 -44 -36 -8 -73 -17 -82 -21 -27 -11
-22 6 21 76 37 62 58 109 47 109 -2 0 -29 -37 -60 -82 -72 -108 -91 -131 -105
-127 -7 3 4 25 27 55 21 28 44 64 50 80 97 247 110 302 93 397 -15 86 -14 109
3 105 8 -2 57 -41 108 -88z m-136 -109 c-3 -27 -15 -73 -26 -102 l-20 -54 5
45 c7 52 35 160 43 160 2 0 2 -22 -2 -49z m1357 -228 c54 -61 127 -166 127
-183 0 -9 22 -61 49 -116 104 -210 125 -280 119 -394 -4 -63 -11 -88 -46 -156
-35 -70 -72 -121 -72 -99 0 4 16 40 36 80 33 67 35 76 25 108 -14 41 -44 83
-71 97 -25 14 -60 -1 -110 -46 -22 -20 -43 -35 -45 -32 -2 2 7 21 20 41 26 37
32 67 15 67 -12 0 -79 -101 -115 -173 -15 -32 -30 -57 -34 -57 -4 0 -20 14
-37 31 -27 29 -33 30 -79 25 -47 -5 -51 -4 -69 23 -10 15 -33 33 -49 39 -38
14 -61 -3 -88 -65 -22 -52 -55 -99 -90 -129 -14 -13 -38 -41 -53 -63 -30 -42
-65 -67 -46 -32 5 11 14 21 18 23 5 1 28 47 52 101 42 96 42 99 38 190 -6 123
-55 255 -144 387 -35 53 -64 101 -64 108 0 37 63 -18 99 -86 7 -12 16 -20 22
-16 5 3 48 -31 95 -75 47 -45 90 -81 96 -81 6 0 27 -12 47 -27 30 -23 46 -28
94 -28 52 0 57 -2 57 -22 0 -12 -4 -25 -10 -28 -15 -9 -12 -35 4 -35 31 0 106
217 106 308 l0 54 33 -5 c17 -2 40 0 50 5 14 7 17 4 17 -24 0 -31 1 -31 17
-15 24 24 24 129 1 177 -9 19 -27 61 -38 92 -12 32 -26 60 -31 63 -5 4 -9 11
-9 17 0 13 24 -6 63 -49z m-828 16 c12 -19 -5 -23 -22 -6 -16 16 -16 17 -1 17
9 0 20 -5 23 -11z m-1771 -161 c-4 -24 -11 -51 -16 -61 -35 -69 -115 -749 -94
-803 7 -18 8 -17 25 5 10 13 21 20 24 14 7 -11 -29 -93 -41 -93 -5 0 -12 -9
-15 -20 -3 -11 -10 -20 -16 -20 -7 0 -11 25 -11 68 0 88 -6 105 -38 119 -116
50 -153 62 -167 57 -18 -7 -45 -55 -45 -79 0 -10 -13 -29 -28 -43 -15 -15 -38
-42 -50 -59 l-23 -33 -24 28 -23 27 -52 -44 c-104 -87 -244 -141 -370 -141
-77 0 -140 14 -140 31 0 5 46 9 103 10 56 0 116 5 132 12 17 7 54 21 82 31 32
13 58 31 72 51 19 29 21 38 13 91 -11 69 -7 84 22 84 27 0 46 18 46 42 0 10 4
26 9 36 5 9 15 44 21 77 7 33 25 93 42 132 27 66 33 74 66 83 31 8 40 17 54
52 9 24 19 56 23 72 3 15 14 30 24 33 14 3 20 18 24 58 4 36 18 78 42 122 39
72 55 94 55 77 0 -29 -53 -210 -65 -224 -9 -10 -13 -24 -9 -33 3 -8 -1 -42
-10 -74 -8 -32 -18 -71 -22 -88 -10 -37 -11 -135 -3 -135 10 0 19 28 19 56 0
37 16 29 35 -18 22 -57 43 -78 76 -78 22 0 30 6 38 33 6 18 13 55 15 83 4 63
25 136 44 151 8 7 11 20 7 32 -3 11 -1 23 7 28 21 13 51 81 45 102 -3 14 5 34
24 57 16 20 29 45 29 55 0 20 31 79 43 79 4 0 4 -19 1 -42z m1871 31 c11 -17
-1 -21 -15 -4 -8 9 -8 15 -2 15 6 0 14 -5 17 -11z m1559 -154 c-2 -156 -40
-318 -81 -351 -24 -19 -27 -29 -28 -82 0 -71 -10 -88 -26 -43 -12 34 -53 61
-93 61 -14 0 -52 -12 -83 -26 -78 -36 -76 -34 -122 -72 l-41 -33 15 35 c25 60
19 164 -15 258 -16 45 -30 91 -30 101 0 18 3 17 33 -7 87 -72 150 -115 158
-110 6 3 -11 24 -36 46 -52 45 -59 66 -15 43 16 -8 56 -18 89 -21 58 -7 59 -6
104 35 52 48 102 143 112 213 5 34 11 45 21 41 10 -4 14 5 14 33 1 35 2 37 13
19 8 -13 11 -61 11 -140z m-2374 -8 c0 -2 -12 -14 -27 -28 -24 -22 -24 -13 0
19 8 11 27 17 27 9z m213 -264 c-7 -2 -19 -2 -25 0 -7 3 -2 5 12 5 14 0 19 -2
13 -5z m-748 -254 c2 -30 4 -99 6 -154 3 -97 2 -100 -22 -112 -13 -7 -40 -13
-60 -13 -33 0 -97 -35 -85 -47 2 -3 38 1 79 8 67 11 78 11 101 -4 17 -12 26
-27 26 -43 0 -25 -2 -26 -32 -19 -67 14 -133 16 -175 3 -41 -12 -56 -32 -31
-40 18 -6 -1 -28 -24 -28 -16 0 -18 -3 -9 -14 9 -10 7 -25 -9 -61 -14 -32 -24
-88 -31 -173 -5 -70 -12 -128 -14 -131 -5 -4 -8 2 -30 84 -21 75 -56 135 -102
176 -31 26 -42 30 -74 26 -21 -3 -57 -1 -80 4 -23 5 -57 10 -75 11 -43 2 -43
15 -1 70 19 24 46 79 61 123 38 107 67 175 75 175 4 0 13 -23 20 -50 10 -40
16 -48 26 -40 10 9 16 6 24 -9 6 -11 28 -25 47 -30 44 -12 83 4 103 42 8 14
24 28 36 31 26 7 85 77 104 123 7 17 22 40 33 50 11 10 29 36 40 58 11 22 25
46 31 53 18 23 39 -11 42 -69z m902 -5 l26 -26 -7 -130 c-7 -137 -21 -189 -54
-207 -36 -19 -81 -13 -109 15 -24 24 -25 29 -21 122 6 117 23 174 64 219 38
40 66 42 101 7z m500 -321 c-25 -26 -50 -44 -54 -40 -7 8 89 98 97 91 2 -3
-17 -26 -43 -51z m-3128 -60 c24 -13 39 -23 33 -23 -17 0 -125 41 -137 51 -18
17 59 -4 104 -28z m2151 -1315 c0 -3 -9 -4 -20 -1 -31 8 -25 -18 26 -104 50
-84 154 -306 154 -327 0 -8 7 -19 15 -26 18 -15 20 -43 3 -38 -14 4 -197 364
-198 388 -1 20 -37 66 -46 58 -3 -4 6 -37 20 -74 35 -87 26 -95 -13 -12 l-31
65 31 57 c28 52 32 56 45 39 7 -10 14 -21 14 -25z m-76 -175 c14 -32 40 -80
57 -108 17 -27 61 -103 97 -168 45 -81 73 -122 90 -128 17 -7 22 -14 17 -29
-9 -28 19 -36 50 -16 24 16 25 16 38 -16 8 -18 32 -89 55 -158 23 -69 57 -170
77 -225 20 -55 41 -116 46 -135 6 -19 14 -44 19 -55 4 -11 11 -29 14 -40 2
-11 11 -38 19 -60 8 -21 12 -45 10 -53 -7 -16 -270 -145 -333 -163 -25 -7 -52
-18 -60 -25 -14 -11 -195 -74 -214 -74 -5 0 -18 -8 -28 -17 -18 -16 -21 -16
-55 2 -19 11 -38 25 -40 33 -3 7 25 45 63 86 38 40 80 86 93 102 37 44 121
175 121 188 0 7 9 30 21 51 29 57 56 131 70 198 16 77 -1 153 -52 223 -35 48
-105 94 -142 94 -7 0 -32 9 -55 20 -22 11 -53 20 -68 20 -17 0 -38 12 -58 33
-34 37 -45 57 -69 132 l-16 50 44 57 c24 31 65 97 92 147 26 50 53 91 59 91 6
0 23 -26 38 -57z m-1474 37 c0 -5 -5 -10 -11 -10 -11 0 -95 -35 -119 -50 -8
-5 -35 -21 -60 -36 -123 -74 -179 -134 -259 -275 -105 -183 -117 -316 -41
-438 16 -25 25 -48 19 -49 -21 -8 -233 173 -244 209 -10 30 -37 25 -29 -6 3
-14 2 -25 -4 -25 -17 0 -32 26 -41 73 -5 26 -22 63 -41 86 l-32 41 34 14 c18
8 62 46 97 85 35 39 68 71 73 71 4 0 8 -9 8 -20 0 -34 27 -11 38 33 6 22 9 44
7 48 -3 3 3 13 13 22 12 11 23 12 41 6 l25 -10 -42 -42 c-47 -47 -51 -57 -24
-57 10 0 33 18 50 40 40 49 135 117 235 169 43 21 83 43 90 49 6 5 32 16 57
23 25 7 61 23 80 35 37 24 80 31 80 14z m1773 -83 c29 -40 58 -84 65 -99 8
-20 19 -28 37 -28 32 0 32 -10 -4 -44 l-29 -27 -21 29 c-11 17 -21 33 -21 36
0 5 -83 182 -98 210 -17 30 26 -16 71 -77z m337 13 l25 -8 -25 -1 c-14 0 -32
4 -40 9 -13 9 -13 10 0 9 8 -1 26 -5 40 -9z m385 1 c-14 -12 -75 -31 -99 -30
-19 0 -19 1 4 11 25 10 76 25 95 27 5 1 5 -2 0 -8z m-505 -22 c12 -7 11 -8 -6
-9 -11 0 -29 7 -40 16 -18 14 -18 15 6 8 14 -3 32 -10 40 -15z m-60 -24 c17
-9 30 -18 30 -21 0 -12 -21 -44 -29 -44 -8 0 -51 64 -51 76 0 8 22 4 50 -11z
m-133 -241 c-11 -12 -38 12 -46 39 -5 18 -21 61 -35 96 -14 36 -26 67 -26 70
0 3 25 -41 56 -98 30 -57 53 -105 51 -107z m153 111 c-7 -9 -15 -13 -18 -10
-3 2 1 11 8 20 7 9 15 13 18 10 3 -2 -1 -11 -8 -20z m42 -207 c18 -63 19 -80
9 -92 -17 -20 -34 -10 -26 15 4 11 2 26 -5 34 -12 14 -30 192 -20 201 3 3 9
-14 13 -38 4 -23 17 -78 29 -120z m-2966 30 c9 -18 34 -57 55 -87 22 -30 39
-58 39 -63 0 -10 -41 -10 -56 0 -18 12 -87 160 -79 171 11 19 24 12 41 -21z
m113 -79 c23 -45 40 -83 37 -86 -9 -10 -36 6 -42 24 -7 23 -14 36 -48 96 -26
43 -26 47 -9 47 14 0 31 -23 62 -81z m4496 35 c11 -23 15 -47 11 -66 -6 -33
-66 -138 -78 -138 -11 0 -10 7 8 41 16 32 22 73 23 152 1 56 13 60 36 11z
m-4637 -59 c14 -43 9 -54 -16 -39 -21 14 -30 88 -10 82 7 -3 19 -22 26 -43z
m4387 -16 c30 -33 35 -46 35 -87 0 -45 -4 -51 -80 -132 -44 -46 -82 -81 -85
-78 -3 3 0 21 8 40 24 57 48 179 47 233 -1 27 -1 55 -1 62 2 21 40 1 76 -38z
m-4337 -46 c-5 -25 -28 -28 -28 -4 0 12 6 21 16 21 9 0 14 -7 12 -17z m3032
-103 c0 -10 12 -30 27 -44 29 -28 27 -42 -6 -31 -12 3 -24 18 -27 33 -3 15 -8
35 -11 45 -2 9 0 17 6 17 6 0 11 -9 11 -20z m418 -228 c15 -11 49 -24 77 -31
52 -13 102 -52 167 -130 26 -32 34 -47 26 -53 -7 -4 -19 -1 -28 7 -26 23 -162
82 -218 94 -64 13 -65 13 -58 2 7 -11 -22 -23 -35 -16 -14 9 -78 -25 -84 -45
-3 -10 -12 -21 -21 -24 -15 -6 -25 -27 -54 -110 l-16 -49 -23 64 c-12 35 -46
125 -76 199 -60 152 -69 180 -60 180 4 0 15 -10 26 -22 14 -17 17 -18 13 -5
-9 24 7 21 52 -11 34 -24 107 -62 119 -62 2 0 2 6 -1 14 -8 22 14 29 47 16 35
-15 45 -9 31 17 -9 14 -5 24 21 51 l31 32 19 -50 c10 -28 30 -58 45 -68z
m-494 -427 c-16 -25 -36 -45 -45 -45 -9 0 -33 -11 -53 -25 -46 -31 -52 -31
-58 0 -5 23 3 30 86 74 50 27 92 48 95 46 2 -2 -10 -25 -25 -50z m304 -28 c8
-10 6 -16 -9 -26 -25 -15 -33 -9 -24 18 7 24 18 27 33 8z m142 -332 c0 -8 -9
-15 -20 -15 -25 0 -26 17 -2 23 9 3 18 5 20 6 1 0 2 -6 2 -14z m-1453 -27 c-3
-8 -6 -5 -6 6 -1 11 2 17 5 13 3 -3 4 -12 1 -19z"/>
<path d="M2949 4453 c-15 -40 -4 -52 14 -16 20 37 21 43 7 43 -6 0 -15 -12
-21 -27z"/>
<path d="M2937 3973 c-16 -15 -5 -24 21 -18 21 4 38 -1 68 -23 73 -53 81 -54
37 -4 -37 41 -106 66 -126 45z"/>
<path d="M3645 3836 c-17 -41 -19 -66 -6 -66 15 0 41 42 41 67 0 37 -20 37
-35 -1z"/>
<path d="M2770 3071 c0 -5 7 -14 15 -21 8 -7 15 -19 15 -26 0 -8 7 -14 15 -14
19 0 19 20 -1 48 -15 22 -44 30 -44 13z"/>
<path d="M2996 2444 c-8 -21 15 -62 58 -103 20 -19 36 -40 36 -45 0 -6 40 -53
89 -103 68 -72 94 -93 115 -93 33 0 34 16 0 24 -14 4 -62 45 -107 91 -70 72
-83 92 -93 136 l-11 50 41 -6 c22 -3 52 -10 66 -15 14 -5 50 -11 81 -13 31 -3
65 -9 75 -15 39 -19 181 -62 227 -68 26 -4 50 -11 54 -17 16 -26 -121 -103
-270 -151 -28 -9 -9 -27 21 -20 53 12 117 36 132 48 8 7 45 21 82 30 37 9 84
25 103 36 20 11 44 20 54 20 10 0 26 9 36 20 18 20 17 20 -21 21 -21 0 -70 9
-109 20 -38 11 -97 26 -130 34 -33 8 -87 23 -120 35 -121 42 -151 50 -190 50
-22 0 -71 12 -110 25 -82 29 -101 31 -109 9z"/>
<path d="M1260 3605 c0 -8 2 -15 4 -15 2 0 6 7 10 15 3 8 1 15 -4 15 -6 0 -10
-7 -10 -15z"/>
<path d="M4820 3871 c0 -5 7 -11 15 -15 8 -3 15 -1 15 3 0 5 -7 11 -15 15 -8
3 -15 1 -15 -3z"/>
<path d="M1870 3270 c0 -5 5 -10 11 -10 5 0 7 5 4 10 -3 6 -8 10 -11 10 -2 0
-4 -4 -4 -10z"/>
<path d="M0 5660 c0 -5 15 -10 34 -10 19 0 67 -6 107 -14 184 -35 434 -66 539
-66 77 -1 154 -13 263 -40 85 -22 127 -31 217 -45 209 -34 267 -56 443 -171
54 -35 107 -64 118 -64 31 0 15 16 -66 68 -189 121 -253 148 -430 182 -158 29
-299 60 -378 81 -21 5 -77 12 -125 15 -187 10 -221 13 -347 28 -71 9 -171 23
-221 31 -105 17 -154 19 -154 5z"/>
<path d="M660 4593 c0 -4 41 -30 92 -58 50 -27 112 -62 138 -76 43 -24 70 -28
70 -9 0 8 -239 133 -277 145 -13 3 -23 3 -23 -2z"/>
<path d="M60 4328 c0 -15 5 -30 10 -33 13 -8 13 25 0 45 -8 12 -10 9 -10 -12z"/>
<path d="M87 4250 c22 -130 152 -423 220 -497 l35 -38 -23 40 c-12 22 -27 47
-34 55 -6 8 -20 35 -30 60 -10 25 -25 52 -32 61 -7 8 -13 23 -13 32 0 10 -4
25 -10 35 -15 28 -47 104 -60 147 -7 22 -23 63 -36 90 -22 46 -23 47 -17 15z"/>
<path d="M170 3882 c0 -21 71 -148 120 -214 61 -83 233 -212 254 -191 3 3 -14
15 -37 26 -63 31 -175 149 -252 267 -76 118 -85 129 -85 112z"/>
<path d="M5335 1875 c-5 -2 -29 -9 -53 -15 -85 -22 -173 -143 -202 -279 -10
-46 -16 -59 -25 -51 -13 11 -23 3 -43 -36 -25 -48 -64 -224 -67 -304 -3 -76
-6 -87 -28 -105 -14 -11 -53 -42 -87 -70 -128 -104 -138 -143 -72 -285 45 -96
169 -250 202 -250 15 0 20 -9 25 -47 13 -109 48 -250 65 -267 15 -15 12 -63
-5 -70 -10 -4 -15 -20 -15 -51 0 -41 2 -45 24 -45 20 0 23 4 20 22 l-5 23 12
-23 c8 -14 21 -22 39 -22 27 0 27 2 32 71 6 79 3 97 -41 219 -45 127 -65 254
-57 378 5 80 3 109 -9 131 -14 28 -14 29 43 82 32 30 83 75 114 102 38 31 58
56 60 73 2 22 17 34 83 68 44 23 103 58 130 77 28 19 70 44 95 54 25 10 49 22
54 27 17 14 -1 20 -24 8 -11 -6 -26 -10 -31 -8 -6 2 24 19 66 37 58 26 79 31
85 22 5 -10 19 -7 56 13 27 14 52 26 56 26 4 0 23 11 43 24 l36 25 -40 12
c-35 10 -44 10 -58 -3 -14 -12 -255 -112 -435 -180 -15 -6 -33 -16 -39 -24 -6
-8 -29 -14 -50 -14 -40 0 -46 9 -33 45 10 24 241 194 304 223 30 13 66 35 80
47 24 22 72 40 153 55 34 7 43 4 73 -22 19 -17 34 -36 34 -43 0 -7 7 -18 15
-25 12 -10 18 -10 30 0 19 16 19 47 0 84 -20 38 -19 43 5 21 11 -10 23 -15 27
-12 19 20 -141 137 -213 156 -42 11 -99 6 -121 -11 -6 -5 -23 -12 -37 -16 -37
-10 -194 -120 -244 -172 -66 -67 -152 -186 -158 -219 -3 -16 -24 -46 -46 -67
l-41 -39 7 58 c12 113 77 257 115 257 9 0 34 25 56 56 141 199 219 255 285
204 37 -29 59 -26 30 5 -31 34 -80 48 -114 35 -34 -12 -111 -64 -148 -98 -25
-23 -58 -25 -58 -4 0 16 112 92 135 92 33 0 56 10 49 22 -3 5 -25 6 -48 3 -34
-6 -44 -4 -49 9 -6 15 -20 19 -42 11z m-10 -72 c-64 -43 -110 -111 -99 -145 3
-11 -1 -27 -9 -36 -9 -9 -36 -51 -61 -92 -44 -71 -46 -73 -46 -40 0 62 22 165
47 213 13 26 42 66 63 87 36 36 45 40 92 40 l53 0 -40 -27z m475 -93 c11 -6
29 -28 40 -50 l20 -39 -34 6 c-33 5 -94 -14 -213 -68 -23 -10 -46 -19 -50 -19
-5 0 -31 -15 -58 -33 -55 -37 -199 -117 -209 -117 -14 0 87 122 108 130 11 5
53 39 91 77 89 87 181 135 243 128 24 -3 52 -9 62 -15z m-738 -312 c-3 -88 -1
-110 17 -151 28 -65 27 -70 -14 -90 -48 -23 -70 -22 -59 1 4 9 9 69 9 132 1
95 4 123 22 163 12 26 23 47 25 47 2 0 2 -46 0 -102z m478 -128 c-8 -5 -19
-10 -25 -10 -5 0 -3 5 5 10 8 5 20 10 25 10 6 0 3 -5 -5 -10z m-315 -106 c16
-12 17 -18 8 -32 -11 -17 -50 -19 -66 -3 -14 14 2 51 21 51 9 0 26 -7 37 -16z
m130 6 c-3 -5 -12 -10 -18 -10 -7 0 -6 4 3 10 19 12 23 12 15 0z m-229 -55
c16 -18 34 -25 59 -25 64 0 42 -40 -61 -111 -90 -63 -170 -159 -155 -186 5
-10 7 -75 4 -149 l-6 -130 -27 25 c-52 50 -133 164 -155 220 -34 88 -37 108
-21 140 28 54 156 161 241 202 44 21 84 38 89 38 5 1 19 -10 32 -24z"/>
<path d="M5945 1445 c-27 -23 -28 -25 -9 -25 12 0 24 7 28 15 3 8 12 15 21 15
8 0 15 5 15 10 0 17 -24 10 -55 -15z"/>
<path d="M5936 1254 c-3 -9 -12 -14 -20 -11 -23 9 -32 -11 -26 -60 l5 -48 38
2 c34 2 37 0 37 -25 0 -96 -66 -349 -126 -479 -19 -42 -34 -83 -34 -92 0 -9
-14 -38 -30 -66 -16 -27 -30 -59 -29 -70 0 -17 3 -16 24 9 13 16 29 41 36 55
7 14 18 33 25 41 17 23 101 239 133 343 23 77 28 112 30 211 1 97 -1 122 -15
137 -9 10 -13 22 -10 27 9 14 -4 42 -19 42 -7 0 -16 -7 -19 -16z m-6 -75 c0
-5 -4 -9 -10 -9 -5 0 -10 7 -10 16 0 8 5 12 10 9 6 -3 10 -10 10 -16z"/>
<path d="M5825 1188 c-31 -17 -78 -60 -220 -197 -144 -139 -245 -263 -245
-300 0 -23 16 -9 44 38 36 61 80 107 167 177 38 30 71 65 75 78 6 26 98 111
177 165 46 31 60 51 35 51 -7 0 -22 -6 -33 -12z"/>
<path d="M5825 925 c-16 -14 -36 -25 -44 -25 -7 0 -43 -19 -80 -43 -36 -24
-79 -49 -95 -57 -16 -8 -48 -32 -72 -53 -23 -20 -63 -47 -88 -58 -25 -11 -46
-24 -46 -29 0 -15 10 -12 85 25 39 19 77 35 86 35 8 0 49 22 90 50 40 27 75
46 77 42 4 -14 -45 -117 -63 -132 -19 -16 -43 -70 -55 -125 -20 -95 -75 -211
-129 -275 -32 -36 -28 -60 7 -41 11 6 38 31 60 56 22 25 42 45 45 45 3 0 8
-15 12 -33 9 -39 84 -265 97 -290 6 -12 21 -17 49 -17 36 0 39 2 35 23 -14 65
-16 97 -7 97 5 0 12 -14 15 -30 3 -17 9 -44 12 -60 5 -27 9 -30 45 -30 21 0
39 2 39 5 0 3 -6 38 -14 78 -8 40 -22 113 -32 164 -14 75 -21 91 -35 90 -26
-2 -28 -25 -13 -107 8 -40 12 -75 9 -78 -3 -3 -5 1 -5 8 0 14 -27 77 -60 140
-10 19 -24 58 -30 85 -7 28 -19 60 -26 72 -30 48 -6 132 90 313 27 50 32 67
23 78 -9 11 -4 20 26 44 20 17 37 36 37 44 0 20 -10 17 -45 -11z m-145 -486
c27 -49 51 -142 45 -171 l-7 -30 -12 24 c-6 12 -18 39 -26 58 -7 19 -22 45
-31 58 -14 18 -16 29 -7 52 12 35 23 38 38 9z m65 -277 c-5 -5 -25 43 -25 61
1 7 7 -3 16 -22 8 -19 12 -36 9 -39z"/>
<path d="M5925 650 c-27 -44 -70 -140 -61 -137 11 3 46 68 65 120 10 27 8 36
-4 17z"/>
<path d="M4909 308 c-24 -87 -63 -195 -91 -250 -26 -53 -27 -58 -10 -58 30 0
94 162 127 323 9 44 -13 31 -26 -15z"/>
<path d="M5935 180 c8 -144 14 -180 31 -180 16 0 15 29 -8 180 -17 117 -29
117 -23 0z"/>
</g>
</svg>
